name Walk8.mot
datacolumns 19
datarows 22
range 2.25200000 2.27300000
endheader

                time	   L_ground_force_vx	   L_ground_force_vy	   L_ground_force_vz	   L_ground_force_px	   L_ground_force_py	   L_ground_force_pz	   R_ground_force_vx	   R_ground_force_vy	   R_ground_force_vz	   R_ground_force_px	   R_ground_force_py	   R_ground_force_pz	   L_ground_torque_x	   L_ground_torque_y	   L_ground_torque_z	   R_ground_torque_x	   R_ground_torque_y	   R_ground_torque_z	
          2.25200000	          0.02309590	          0.08902613	         -0.00685949	         -0.00005000	          0.00000000	         -0.00005637	        -28.20788649	        863.17020505	        -53.34785055	          0.57168049	          0.00000000	          0.14861959	          0.00000000	          0.00028910	          0.00000000	          0.00000000	          0.89009215	          0.00000000	
          2.25300000	          0.02052074	          0.08284142	         -0.00645777	         -0.00004810	          0.00000000	         -0.00005576	        -27.79255950	        861.04446394	        -53.15206540	          0.57190882	          0.00000000	          0.14867837	          0.00000000	          0.00026228	          0.00000000	          0.00000000	          0.83074409	          0.00000000	
          2.25400000	          0.01808699	          0.07686952	         -0.00606579	         -0.00004617	          0.00000000	         -0.00005500	        -27.38135810	        858.94429981	        -52.95435639	          0.57213708	          0.00000000	          0.14873652	          0.00000000	          0.00023675	          0.00000000	          0.00000000	          0.77204442	          0.00000000	
          2.25500000	          0.01579182	          0.07111491	         -0.00568423	         -0.00004424	          0.00000000	         -0.00005409	        -26.97417414	        856.87001697	        -52.75505663	          0.57236528	          0.00000000	          0.14879407	          0.00000000	          0.00021250	          0.00000000	          0.00000000	          0.71396682	          0.00000000	
          2.25600000	          0.01363212	          0.06558085	         -0.00531362	         -0.00004230	          0.00000000	         -0.00005305	        -26.57089851	        854.82195693	        -52.55449744	          0.57259343	          0.00000000	          0.14885104	          0.00000000	          0.00018951	          0.00000000	          0.00000000	          0.65648478	          0.00000000	
          2.25700000	          0.01160454	          0.06026950	         -0.00495445	         -0.00004037	          0.00000000	         -0.00005190	        -26.17142108	        852.80049645	        -52.35300825	          0.57282154	          0.00000000	          0.14890745	          0.00000000	          0.00016776	          0.00000000	          0.00000000	          0.59957140	          0.00000000	
          2.25800000	          0.00970550	          0.05518201	         -0.00460709	         -0.00003845	          0.00000000	         -0.00005066	        -25.77563058	        850.80604527	        -52.15091645	          0.57304960	          0.00000000	          0.14896334	          0.00000000	          0.00014722	          0.00000000	          0.00000000	          0.54319932	          0.00000000	
          2.25900000	          0.00793125	          0.05031855	         -0.00427186	         -0.00003654	          0.00000000	         -0.00004932	        -25.38341480	        848.83904404	        -51.94854737	          0.57327761	          0.00000000	          0.14901873	          0.00000000	          0.00012787	          0.00000000	          0.00000000	          0.48734068	          0.00000000	
          2.26000000	          0.00627788	          0.04567846	         -0.00394899	         -0.00003466	          0.00000000	         -0.00004792	        -24.99466099	        846.89996251	        -51.74622410	          0.57350558	          0.00000000	          0.14907365	          0.00000000	          0.00010969	          0.00000000	          0.00000000	          0.43196718	          0.00000000	
          2.26100000	          0.00474137	          0.04126029	         -0.00363865	         -0.00003281	          0.00000000	         -0.00004645	        -24.60925637	        844.98929749	        -51.54426732	          0.57373349	          0.00000000	          0.14912813	          0.00000000	          0.00009263	          0.00000000	          0.00000000	          0.37705006	          0.00000000	
          2.26200000	          0.00331758	          0.03706185	         -0.00334095	         -0.00003100	          0.00000000	         -0.00004493	        -24.22708850	        843.10756998	        -51.34299495	          0.57396135	          0.00000000	          0.14918219	          0.00000000	          0.00007668	          0.00000000	          0.00000000	          0.32256001	          0.00000000	
          2.26300000	          0.00200231	          0.03308033	         -0.00305593	         -0.00002922	          0.00000000	         -0.00004337	        -23.84804544	        841.25532113	        -51.14272170	          0.57418916	          0.00000000	          0.14923587	          0.00000000	          0.00006179	          0.00000000	          0.00000000	          0.26846716	          0.00000000	
          2.26400000	          0.00079130	          0.02931234	         -0.00278360	         -0.00002748	          0.00000000	         -0.00004178	        -23.47201543	        839.43310704	        -50.94375837	          0.57441691	          0.00000000	          0.14928920	          0.00000000	          0.00004794	          0.00000000	          0.00000000	          0.21474109	          0.00000000	
          2.26500000	         -0.00031973	          0.02575395	         -0.00252390	         -0.00002578	          0.00000000	         -0.00004017	        -23.09888654	        837.64149313	        -50.74641119	          0.57464461	          0.00000000	          0.14934221	          0.00000000	          0.00003508	          0.00000000	          0.00000000	          0.16135104	          0.00000000	
          2.26600000	         -0.00133509	          0.02240079	         -0.00227675	         -0.00002414	          0.00000000	         -0.00003854	        -22.72854631	        835.88104872	        -50.55098088	          0.57487225	          0.00000000	          0.14939492	          0.00000000	          0.00002318	          0.00000000	          0.00000000	          0.10826623	          0.00000000	
          2.26700000	         -0.00225907	          0.01924809	         -0.00204201	         -0.00002254	          0.00000000	         -0.00003691	        -22.36088165	        834.15234265	        -50.35776181	          0.57509985	          0.00000000	          0.14944736	          0.00000000	          0.00001221	          0.00000000	          0.00000000	          0.05545648	          0.00000000	
          2.26800000	         -0.00309596	          0.01629070	         -0.00181951	         -0.00002099	          0.00000000	         -0.00003527	        -21.99577901	        832.45594018	        -50.16704096	          0.57532741	          0.00000000	          0.14949957	          0.00000000	          0.00000212	          0.00000000	          0.00000000	          0.00289275	          0.00000000	
          2.26900000	         -0.00384999	          0.01352321	         -0.00160905	         -0.00001949	          0.00000000	         -0.00003364	        -21.63312494	        830.79240098	        -49.97909696	          0.57555492	          0.00000000	          0.14955156	          0.00000000	         -0.00000712	          0.00000000	          0.00000000	         -0.04945229	          0.00000000	
          2.27000000	         -0.00452536	          0.01093992	         -0.00141041	         -0.00001805	          0.00000000	         -0.00003203	        -21.27280678	        829.16227771	        -49.79419913	          0.57578240	          0.00000000	          0.14960337	          0.00000000	         -0.00001554	          0.00000000	          0.00000000	         -0.10160414	          0.00000000	
          2.27100000	         -0.00512621	          0.00853493	         -0.00122333	         -0.00001666	          0.00000000	         -0.00003043	        -20.91471367	        827.56611440	        -49.61260688	          0.57600986	          0.00000000	          0.14965500	          0.00000000	         -0.00002319	          0.00000000	          0.00000000	         -0.15358652	          0.00000000	
          2.27200000	         -0.00565661	          0.00630217	         -0.00104753	         -0.00001533	          0.00000000	         -0.00002885	        -20.55873739	        826.00444459	        -49.43456938	          0.57623729	          0.00000000	          0.14970648	          0.00000000	         -0.00003010	          0.00000000	          0.00000000	         -0.20542175	          0.00000000	
          2.27300000	         -0.00612053	          0.00423544	         -0.00088272	         -0.00001405	          0.00000000	         -0.00002729	        -20.20477318	        824.47778915	        -49.26032547	          0.57646471	          0.00000000	          0.14975782	          0.00000000	         -0.00003631	          0.00000000	          0.00000000	         -0.25713123	          0.00000000	
